<svg width="61" height="61" viewBox="0 0 61 61" fill="none" xmlns="http://www.w3.org/2000/svg">
<g clip-path="url(#clip0_165_549)">
<path d="M36.9974 20.3075L27.3733 31.8504L24.0042 27.8111C23.6892 27.4331 23.3029 27.1208 22.8672 26.8921C22.4315 26.6635 21.955 26.5228 21.465 26.4783C20.975 26.4337 20.481 26.4861 20.0112 26.6325C19.5414 26.7789 19.1051 27.0163 18.7271 27.3313C18.3491 27.6463 18.0368 28.0327 17.8082 28.4684C17.5795 28.904 17.4388 29.3805 17.3943 29.8705C17.3497 30.3606 17.4022 30.8546 17.5485 31.3243C17.6949 31.7941 17.9323 32.2304 18.2473 32.6084L24.4949 40.1084C24.8461 40.531 25.2859 40.8711 25.7832 41.1046C26.2805 41.3382 26.8231 41.4594 27.3725 41.4598C27.9219 41.4601 28.4646 41.3396 28.9622 41.1067C29.4598 40.8738 29.9001 40.5342 30.2518 40.1121L42.7542 25.1121C43.072 24.7344 43.312 24.2977 43.4606 23.827C43.6092 23.3563 43.6634 22.8609 43.62 22.3692C43.5766 21.8775 43.4366 21.3992 43.208 20.9617C42.9793 20.5243 42.6666 20.1363 42.2876 19.82C41.9086 19.5037 41.471 19.2654 40.9997 19.1187C40.5284 18.972 40.0328 18.9197 39.5412 18.965C39.0497 19.0103 38.572 19.1522 38.1354 19.3826C37.6989 19.613 37.3121 19.9273 36.9974 20.3075Z" fill="#32B926"/>
<path d="M30.5 0.209961C24.5666 0.209961 18.7664 1.96943 13.8329 5.26587C8.89943 8.56231 5.05426 13.2477 2.78363 18.7295C0.512999 24.2112 -0.0811015 30.2432 1.07646 36.0627C2.23401 41.8821 5.09123 47.2276 9.28681 51.4232C13.4824 55.6187 18.8279 58.476 24.6473 59.6335C30.4667 60.7911 36.4987 60.197 41.9805 57.9263C47.4623 55.6557 52.1477 51.8105 55.4441 46.8771C58.7405 41.9436 60.5 36.1434 60.5 30.21C60.4915 22.2561 57.3281 14.6304 51.7039 9.00611C46.0796 3.38186 38.4539 0.218432 30.5 0.209961ZM30.5 52.71C26.0499 52.71 21.6998 51.3904 17.9997 48.918C14.2996 46.4457 11.4157 42.9317 9.71272 38.8203C8.00975 34.709 7.56418 30.185 8.43234 25.8204C9.30051 21.4559 11.4434 17.4467 14.5901 14.3001C17.7368 11.1534 21.7459 9.01046 26.1105 8.14229C30.4751 7.27412 34.9991 7.7197 39.1104 9.42267C43.2217 11.1256 46.7357 14.0095 49.2081 17.7096C51.6804 21.4097 53 25.7599 53 30.21C52.9935 36.1753 50.6209 41.8945 46.4027 46.1127C42.1846 50.3308 36.4654 52.7035 30.5 52.71Z" fill="#32B926"/>
</g>
<defs>
<clipPath id="clip0_165_549">
<rect width="60" height="60" fill="white" transform="translate(0.5 0.209961)"/>
</clipPath>
</defs>
</svg>
